<?xml version="1.0" encoding="UTF-8" standalone="no"?>
<svg
   xmlns:dc="http://purl.org/dc/elements/1.1/"
   xmlns:cc="http://creativecommons.org/ns#"
   xmlns:rdf="http://www.w3.org/1999/02/22-rdf-syntax-ns#"
   xmlns:svg="http://www.w3.org/2000/svg"
   xmlns="http://www.w3.org/2000/svg"
   xmlns:sodipodi="http://sodipodi.sourceforge.net/DTD/sodipodi-0.dtd"
   xmlns:inkscape="http://www.inkscape.org/namespaces/inkscape"
   height="85"
   viewBox="0 0 250 85.000349"
   width="250"
   version="1.1"
   id="svg3741"
   sodipodi:docname="smutextlogo.svg"
   inkscape:version="0.92.3 (2405546, 2018-03-11)">
  <metadata
     id="metadata3747">
    <rdf:RDF>
      <cc:Work
         rdf:about="">
        <dc:format>image/svg+xml</dc:format>
        <dc:type
           rdf:resource="http://purl.org/dc/dcmitype/StillImage" />
        <dc:title></dc:title>
      </cc:Work>
    </rdf:RDF>
  </metadata>
  <defs
     id="defs3745" />
  <sodipodi:namedview
     pagecolor="#ffffff"
     bordercolor="#666666"
     borderopacity="1"
     objecttolerance="10"
     gridtolerance="10"
     guidetolerance="10"
     inkscape:pageopacity="0"
     inkscape:pageshadow="2"
     inkscape:window-width="1366"
     inkscape:window-height="706"
     id="namedview3743"
     showgrid="false"
     inkscape:zoom="2.422"
     inkscape:cx="125"
     inkscape:cy="41.6525"
     inkscape:window-x="-8"
     inkscape:window-y="-8"
     inkscape:window-maximized="1"
     inkscape:current-layer="svg3741">
    <inkscape:grid
       type="xygrid"
       id="grid3756" />
  </sodipodi:namedview>
  <path
     d="M 33.648336,2.8758719 C 21.700877,3.2735879 8.8909019,9.5507949 9.4978588,24.80457 10.376348,46.69333 47.256939,40.072713 46.745818,64.962719 46.681928,73.048017 39.669983,77.676859 31.012867,77.664081 17.611907,77.644914 9.9450894,66.694141 7.255314,56.372689 L 5.0367284,56.347139 7.878243,74.646875 c 5.293299,3.437291 12.624694,6.694091 21.441536,6.694091 14.79057,0 28.159585,-7.54383 28.479035,-20.925622 C 58.373826,33.049587 20.502937,38.071353 19.991815,18.995358 19.784173,11.023464 27.195431,5.7796789 35.469206,6.0336429 48.598632,6.4297619 49.525039,16.831079 51.409799,26.071192 l 1.964622,0.04312 1.293776,-18.2438331 c -5.542471,-3.085889 -12.091212,-4.780575 -18.639952,-4.994607 -0.782655,-0.02396 -1.581282,-0.02556 -2.379909,0 z m 31.242286,1.760174 v 1.665935 c 6.516795,0.557442 12.538442,2.843111 12.203019,10.4188871 L 76.007508,32.028942 73.30815,62.938998 C 72.62133,70.791099 70.896296,76.692951 61.10513,78.346109 L 61.1211,80.00885 H 91.836298 V 78.346109 C 78.499224,76.135509 78.387416,71.145688 78.531169,66.828311 79.090208,49.32241 80.208286,20.373788 80.208286,20.373788 h 0.223615 L 107.74493,80.00885 h 1.21392 L 134.467,17.826168 h 0.20764 l 3.29034,48.438313 c 0.6389,9.756026 -4.74384,10.752712 -13.22527,12.081628 l 0.016,1.662741 h 36.24169 l -0.016,-1.662741 C 149.1777,76.352736 149.56104,73.913729 148.21935,58.503425 L 145.15262,18.156799 C 144.6415,10.39734 148.92214,7.7427039 155.95006,6.3019809 l -0.016,-1.665935 h -24.21438 l -0.2236,1.771354 c 2.44379,1.664339 0.94237,7.2100041 -1.75699,13.3051251 L 112.23322,63.825474 90.207098,16.834273 C 89.424444,15.059725 86.389659,8.4055639 88.801511,5.8563479 l -0.127779,-1.220302 z m 97.001208,0.0032 v 1.656352 c 12.93777,1.774549 13.0336,5.1016281 13.35305,16.5219941 v 24.822916 c 0,8.872745 -3.43409,33.700457 29.96448,33.700457 23.91089,0 29.8367,-14.51744 30.15616,-28.822444 l 0.65487,-24.270265 c 0.43126,-14.634042 1.07016,-20.8377771 10.8773,-21.9526601 V 4.6392399 H 215.6554 v 1.656352 c 15.07808,1.440723 16.16421,7.8712681 16.16421,21.9526581 v 11.639182 c 0,13.520754 2.25213,36.350302 -21.01986,36.350302 -29.51725,0 -26.06719,-28.595636 -26.06719,-30.700815 V 22.817587 c 0,-12.191839 0.20765,-14.4136201 14.32738,-16.5219951 v -1.656352 z"
     id="path3731"
     inkscape:connector-curvature="0"
     style="fill:#354ca1;stroke-width:1.59725392" />
</svg>
